<svg version="1.1" xmlns="http://www.w3.org/2000/svg" viewBox="0 0 1099.5161033163267 1207.2673788265304">
  <!-- svg-source:excalidraw -->
  <defs>
    <style>
      @font-face {
        font-family: "Virgil";
        src: url("https://excalidraw.com/FG_Virgil.woff2");
      }
      @font-face {
        font-family: "Cascadia";
        src: url("https://excalidraw.com/Cascadia.woff2");
      }
    </style>
  </defs>
  <rect x="0" y="0" width="1099.5161033163267" height="1207.2673788265304" fill="#ffffff"></rect><g transform="translate(396.5953443877552 10) rotate(0 122.6303411989796 108.91462053571433)"><path d="M161.5503556958207 5.408747826929911 C175.58820539470162 7.776183043279522, 190.70547284308648 16.2192212764754, 202.1619929194148 24.63132797002332 C213.61851299574315 33.04343466357125, 223.39428533158411 44.43158301971733, 230.28947615379073 55.88138798821745 C237.18466697599735 67.33119295671756, 241.59452178796533 80.57686968004771, 243.5331378526545 93.33015778102401 C245.47175391734368 106.08344588200032, 245.1032315730433 119.84856539030541, 241.92117254192584 132.40111659407526 C238.73911351080838 144.95366779784513, 232.3795874698667 157.77006145170517, 224.44078366594974 168.64546500364312 C216.50197986203278 179.52086855558107, 206.22136006229732 190.1093605311841, 194.28834971842414 197.65353790570293 C182.35533937455097 205.19771528022176, 167.15704840819296 210.76740789949096, 152.84272160271075 213.91052925075599 C138.52839479722854 217.053650602021, 122.91642759835163 217.88480716516605, 108.40238888553088 216.51226601329313 C93.88835017271013 215.1397248614202, 78.70932887136614 211.4268840221609, 65.75848932578623 205.67528233951845 C52.80764978020632 199.923680656876, 40.401169337034844 191.86530668634842, 30.69735161205142 182.0026559174384 C20.993533887067997 172.1400051485284, 12.687406888984174 158.93912714253028, 7.535582975885703 146.49937772605836 C2.383759062787232 134.05962830958643, -0.297428597642129 120.17836293119866, -0.21359186653940299 107.36415941860687 C-0.129755135436677 94.54995590601509, 2.819463672884363 81.57131831061878, 8.038603362502059 69.61415665050762 C13.257743052119753 57.65699499039647, 21.035623788584054 45.448590824968946, 31.101246271166772 35.621189457939934 C41.16686875374949 25.793788090910923, 55.31057856556553 16.338806803465868, 68.43233825799837 10.649748448333554 C81.5540979504312 4.960690093201239, 95.51312706667778 2.554869167451301, 109.83180442576379 1.4868393271460434 C124.1504817848498 0.4188094868407859, 144.2552964261404 2.9470739769088468, 154.3444024125144 4.241569406502009 C164.4335083988884 5.536064836095171, 166.26423141998401 7.546300017853402, 170.3664403440077 9.253811904705017 C174.4686492680314 10.961323791556632, 179.51780130943163 12.74792055990754, 178.9576559566566 14.4866407276117 M118.18398694417738 0.23942960315764594 C132.42368981160072 -1.8142316088092394, 150.6068743626909 0.37478652585393757, 164.40929556243427 4.767277026669902 C178.21171676217764 9.159767527485865, 190.08381599193245 17.804732120217288, 200.9985141426377 26.594372608053433 C211.91321229334295 35.38401309588958, 222.49273579521594 46.29386162096163, 229.89748446666567 57.505119953686766 C237.3022331381154 68.7163782864119, 243.5589994769005 81.26888466800114, 245.42700617133613 93.86192260440424 C247.29501286577175 106.45496054080735, 244.72283366935744 120.60301591639376, 241.10552463327946 133.06334757210544 C237.48821559720147 145.52367922781713, 231.8016572968012 157.66972638677228, 223.72315195486823 168.62391253867435 C215.64464661293525 179.5780986905764, 204.37586071625807 190.96085964627122, 192.6344925816816 198.78846448351777 C180.89312444710512 206.61606932076432, 167.3904058297273 212.67701021832107, 153.27494314740937 215.58954156215373 C139.15948046509143 218.50207290598638, 122.50221312197003 218.2017309241624, 107.94171648777393 216.26365254651375 C93.38121985357783 214.3255741688651, 78.7369302779538 209.8865036049305, 65.91196334223275 203.9610712962618 C53.08699640651171 198.03563898759307, 40.54389308398352 190.09844093096186, 30.991914873447655 180.71105869450136 C21.43993666291179 171.32367645804086, 13.851556999580918 160.0140742379471, 8.60009407901758 147.63677787749884 C3.348631158454242 135.25948151705057, -0.7743844757330294 119.6761714624008, -0.5168626499323778 106.44728053181171 C-0.2593408241317263 93.21838960122263, 4.718437511033268 80.3618769269305, 10.14522503382149 68.26343229396434 C15.57201255660971 56.16498766099818, 22.473146858819263 43.33542410621779, 32.043862486796954 33.856612734014746 C41.614578114774645 24.3778013618117, 54.6119825259486 17.073941823739826, 67.56951880168765 11.390564060746058 C80.5270550774267 5.707186297752291, 101.47019847803132 1.7100552611067197, 109.78908014123127 -0.24365384394785394 C118.10796180443121 -2.197362949002428, 115.97099113809405 -0.5162887742858047, 117.48280878088732 -0.331690569581383 C118.9946264236806 -0.1470923648769613, 118.50662496302016 -1.1217329785531998, 118.85998599799092 0.8639353842786761" stroke="#000000" stroke-width="1" fill="none"></path></g><g transform="translate(443.22568558673476 94.91462053571422) rotate(0 76 24)"><text x="76" y="19" font-family="Cascadia, Segoe UI Emoji" font-size="20px" fill="#000000" text-anchor="middle" style="white-space: pre;" direction="ltr">Orchestration</text><text x="76" y="43" font-family="Cascadia, Segoe UI Emoji" font-size="20px" fill="#000000" text-anchor="middle" style="white-space: pre;" direction="ltr">Engine</text></g><g transform="translate(899.3058035714286 354.78236607142844) rotate(0 59.3650350765306 45.47991071428578)"><path d="M-1.0378745961934328 0.7553671468049288 C40.65077172773906 0.8259437483038152, 84.72843897147136 1.3478576939787115, 120.1201241834051 -0.7019012700766325 M-0.23846337851136923 -0.8657441223040223 C26.520980115357517 0.35284360161368766, 52.931448427646814 -0.15081728586609444, 117.73580333850896 -0.2534052515402436 M119.59311278890436 -0.06892521493136883 C118.81522267102484 26.621646600083203, 117.78358410834555 50.548472153501095, 116.78194954227274 89.22981805859945 M119.4474100794605 0.7155872201547027 C118.26480323625076 22.570298445205257, 117.86818269443977 46.07340806960884, 117.8866683270744 91.11027921962432 M118.76343729327982 89.6250469213619 C75.3294235017396 89.23555727948207, 29.970343715936664 92.34451880206126, 0.9227482508867979 92.94063998519323 M118.81167686245954 90.19729079532317 C82.44544785601857 90.42992238942429, 45.739826187529275 91.39814909044549, 0.6176905566826463 91.50068305658988 M-1.2508390713483095 91.70700837432287 C-0.9824219513944373 65.04178693853369, -1.730563657384275 36.82729678021034, 1.2142695020884275 -1.996864689514041 M-0.6503932541236281 91.82705162691764 C0.133672409800056 57.63930435579103, 0.012020968941215071 23.999552651986207, 0.11963167134672403 0.7404075777158141" stroke="#000000" stroke-width="1" fill="none"></path></g><g transform="translate(919.6040338010203 392.140625) rotate(0 41 12)"><text x="41" y="19" font-family="Cascadia, Segoe UI Emoji" font-size="20px" fill="#000000" text-anchor="middle" style="white-space: pre;" direction="ltr">Watcher</text></g><g transform="translate(619.6681281887755 358.3019770408166) rotate(0 59.3650350765306 45.47991071428578)"><path d="M-0.17320825345814228 -0.9356026779860258 C25.934951083892546 -0.8511742838001404, 49.33484130198054 0.27921057862280274, 120.04896517824 0.38176040537655354 M-0.9728662138804793 0.7749897753819823 C34.892396423138976 0.21596045375216422, 71.26299296061009 -1.0858018588985163, 117.90257123373067 -0.2003350043669343 M120.43836613725489 1.1554530132561922 C117.29495380376686 25.673261780663946, 117.90331844543327 47.95625495053752, 118.03549375366038 91.06244595109365 M119.0522120322994 0.11065270658582449 C118.1907649863446 34.654940932251186, 118.84545021540764 70.38687316273833, 118.11999696753537 90.1170829110115 M120.01249542068308 90.90991480409048 C80.06161669274793 92.95373956348453, 41.70556943148759 90.37405286218677, -1.8296927977353334 89.85878194629095 M119.21692627928769 89.99189050721816 C83.76106051067165 90.45299706671672, 50.32401741203854 90.54707253787952, 0.6620257431641221 91.60446970390967 M0.22758535854518414 92.73266376315496 C1.3051208485589352 65.70793321491935, 0.3808202375398007 39.17067710821207, 1.9024984668940306 -0.49650455825030804 M-0.5283755725249648 91.74256007599524 C-0.15559567107681782 57.50935965650682, 0.6879990886258647 25.796994159808918, 0.4869973296299577 -0.151901432313025" stroke="#000000" stroke-width="1" fill="none"></path></g><g transform="translate(644.0331632653061 391.7818877551024) rotate(0 35 12)"><text x="35" y="19" font-family="Cascadia, Segoe UI Emoji" font-size="20px" fill="#000000" text-anchor="middle" style="white-space: pre;" direction="ltr">Pinger</text></g><g><g transform="translate(882.4331951530611 406.53957609847885) rotate(0 -66.35128416582458 -0.742238917829809)"><path d="M-0.891832647845149 -0.8537441331893205 C-23.056611488711344 -1.371261718181419, -111.69793237423652 -2.4840874354424463, -133.54338481434587 -2.7969140872070057 M0.8408164826966824 1.3124362515471875 C-20.883213520579293 0.9320579839483918, -109.00657065037765 -1.012315044261007, -131.19003319836187 -1.5010589238898318" stroke="#000000" stroke-width="1" fill="none"></path></g><g transform="translate(882.4331951530611 406.53957609847885) rotate(0 -66.35128416582458 -0.742238917829809)"><path d="M-104.20356912786818 -12.278341910418817 C-110.73235654039524 -7.411990237228302, -117.83156672032514 -6.257553693760005, -129.37130637376535 -1.738508825068311 M-102.36338830894536 -10.91003168708528 C-107.58194770631445 -8.237108064333617, -113.30905200951442 -8.136142709139008, -130.60780237059075 -0.6367715838076036" stroke="#000000" stroke-width="1" fill="none"></path></g><g transform="translate(882.4331951530611 406.53957609847885) rotate(0 -66.35128416582458 -0.742238917829809)"><path d="M-104.65435889800953 8.237914838047153 C-111.121438698376 7.901123818421488, -118.10625014650593 3.8490674271208825, -129.37130637376535 -1.738508825068311 M-102.81417807908672 9.606225061380691 C-107.99235885228399 8.117789928151618, -113.62804704239208 4.058242841922851, -130.60780237059075 -0.6367715838076036" stroke="#000000" stroke-width="1" fill="none"></path></g></g><g transform="translate(781.4327168367347 371.88472576530626) rotate(0 42 9.5)"><text x="0" y="15" font-family="Cascadia, Segoe UI Emoji" font-size="16px" fill="#000000" text-anchor="start" style="white-space: pre;" direction="ltr">Container</text></g><g transform="translate(626.9763233418366 583.5695153061224) rotate(0 59.3650350765306 45.47991071428578)"><path d="M1.7024403680115938 -1.5009957123547792 C38.304372286032105 0.79534428107637, 73.54435237604969 -0.8244938970814364, 119.3289179464764 -1.0181640554219484 M-0.1990314805880189 0.5514005357399583 C37.47868389767059 0.05292352037706993, 74.03602936473536 0.21495967107096337, 118.76628327443814 0.043581985868513584 M118.43400093521541 0.44278536550700665 C119.59474574508424 25.77513131671631, 119.63023810567613 48.004798968975415, 119.10926463808482 91.0568080036237 M119.11885118558621 0.8492210144177079 C118.77169539284048 35.51195161015291, 117.17623858403502 69.95827538368353, 118.11302885487294 91.75931658263198 M118.73245980944102 90.31092453881047 C79.09698449017006 91.56466222907316, 38.26325363195866 92.09038145447981, 1.9885530937463045 92.40620965643666 M118.59631118252491 90.28055467123977 C90.50001752814545 88.92237469964633, 63.989591755540886 90.14905280285487, 0.9270605063065886 91.09752135391227 M0.6762471664696932 90.08679408713124 C-1.9599955865487573 53.37197758550722, 0.6756058743849279 20.8966458708705, -0.4614430796355009 1.6811029147356749 M-0.8063548589125276 91.40442686195365 C0.0673824747365358 61.04723587009573, 1.2663840552132966 32.40509557556448, -0.84091139677912 0.3659660751000047" stroke="#000000" stroke-width="1" fill="none"></path></g><g transform="translate(656.8413584183672 617.0494260204077) rotate(0 29.5 12)"><text x="29.5" y="19" font-family="Cascadia, Segoe UI Emoji" font-size="20px" fill="#000000" text-anchor="middle" style="white-space: pre;" direction="ltr">Store</text></g><g><g transform="translate(680.812818877551 468.37898596938794) rotate(0 0.6228438318794929 52.410212459906234)"><path d="M-0.13468677587807187 0.13464158959686756 C0.4494493505201679 17.502639987433735, 2.3509254752804543 86.98882240486535, 2.9102237263124833 104.20773900033404 M-1.664536062553525 -0.8402755212038756 C-1.1790293345012326 16.718035319412536, 1.2851446013857633 88.14025863421352, 2.006368263642157 105.66070044101646" stroke="#000000" stroke-width="1" fill="none"></path></g><g transform="translate(680.812818877551 468.37898596938794) rotate(0 0.6228438318794929 52.410212459906234)"><path d="M-9.070187072097116 78.01090971692393 C-6.7324555302508635 85.50176625156662, -5.1681204374152 93.54974957355768, 0.5466122897517334 105.78008477637043 M-8.444138049906844 78.02325986358265 C-6.802980433223828 85.55914522157258, -4.112480990140187 91.1334946108439, 2.175462223606969 105.99524190244695" stroke="#000000" stroke-width="1" fill="none"></path></g><g transform="translate(680.812818877551 468.37898596938794) rotate(0 0.6228438318794929 52.410212459906234)"><path d="M11.436851655372315 77.2484367561521 C8.638581843005275 84.90723819548275, 5.066917178923907 93.14618331323686, 0.5466122897517334 105.78008477637043 M12.062900677562588 77.26078690281082 C8.778146399571158 84.9171734248082, 6.545672939183892 90.67456405057365, 2.175462223606969 105.99524190244695" stroke="#000000" stroke-width="1" fill="none"></path></g></g><g transform="translate(697.8488520408163 509.2208227040817) rotate(0 33 9.5)"><text x="0" y="15" font-family="Cascadia, Segoe UI Emoji" font-size="16px" fill="#000000" text-anchor="start" style="white-space: pre;" direction="ltr">Service</text></g><g transform="translate(320.29185267857133 577.0444834183672) rotate(0 59.3650350765306 45.47991071428578)"><path d="M-0.051817016676068306 -1.2592119704931974 C46.806300725810374 -1.1654403025347293, 92.59671331387787 0.471259791211456, 120.02235188316172 -0.26860631816089153 M0.7167190248146653 0.7440468287095428 C24.250348949303678 -0.004411582353209376, 48.819128448072476 0.1422828692173015, 117.90530973933255 -0.009931095875799656 M117.39199271034067 1.6637624371796846 C118.53616863316412 32.09652605177798, 118.39465725249167 66.09238666649834, 120.17894538472956 89.61612929164312 M119.50269681475675 -0.5384132945910096 C118.88565406875166 20.467856350348644, 118.84086019472632 41.31115354503195, 118.04919287822759 90.33288793492011 M117.98237832616633 91.12764538585088 C92.53161313422909 89.85597964817188, 62.67171212381041 91.09645095163486, 1.1893291305750608 89.06628341733358 M119.41686651371037 91.3069463245838 C77.082136604272 92.99055524743983, 36.149560663644635 92.92401765860507, -0.9888822203502059 90.62616290378264 M-1.440145032480359 89.71895856915853 C-2.1365259003619688 65.50330418357676, -1.1264984321574705 37.530068087179565, -1.8977945614606142 -0.4412762653082609 M0.9691463345661759 90.62253727245024 C0.2100350801660419 66.72734822918895, 0.16732212349909548 43.49261202864005, -0.4097554748877883 0.693471691571176" stroke="#000000" stroke-width="1" fill="none"></path></g><g transform="translate(344.65688775510193 610.5243941326526) rotate(0 35 12)"><text x="35" y="19" font-family="Cascadia, Segoe UI Emoji" font-size="20px" fill="#000000" text-anchor="middle" style="white-space: pre;" direction="ltr">Router</text></g><g><g transform="translate(453.48501275510205 619.2758290816328) rotate(0 79.68570831821127 0.4103187254816021)"><path d="M1.0965442936867473 -0.7103994470089674 C27.43163187305385 -0.34762728822727995, 132.6183392857638 1.0068057515968878, 159.1583253178897 1.2227910298854112 M0.21309131853282448 1.5310368979722262 C26.246700798076933 1.644452500815193, 131.33245959094438 -0.5419428780923288, 157.9521339050832 -0.46289655320346357" stroke="#000000" stroke-width="1" fill="none"></path></g><g transform="translate(453.48501275510205 619.2758290816328) rotate(0 79.68570831821127 0.4103187254816021)"><path d="M128.68352225020988 9.265319096932984 C142.44998183893352 6.799036307241972, 152.49952708905053 0.48366078932879475, 157.70338385732498 0.12354810968041419 M130.68489397194696 9.4796990678486 C138.35723036350998 6.580214765182952, 147.71477921516149 4.4064305388692, 157.9967677639204 0.05810337666422127" stroke="#000000" stroke-width="1" fill="none"></path></g><g transform="translate(453.48501275510205 619.2758290816328) rotate(0 79.68570831821127 0.4103187254816021)"><path d="M128.47412545655396 -11.254821140615245 C142.1603248004217 -5.604224156530568, 152.29271788918612 -3.8008064601747273, 157.70338385732498 0.12354810968041419 M130.47549717829105 -11.04044116969963 C138.28699912873202 -7.506040044646891, 147.71019724719145 -3.24642986280866, 157.9967677639204 0.05810337666422127" stroke="#000000" stroke-width="1" fill="none"></path></g></g><g transform="translate(499.60267857142856 589.9885204081636) rotate(0 23.5 9.5)"><text x="0" y="15" font-family="Cascadia, Segoe UI Emoji" font-size="16px" fill="#000000" text-anchor="start" style="white-space: pre;" direction="ltr">Query</text></g><g transform="translate(931.434630102041 214.49426020408146) rotate(0 23.5 9.5)"><text x="0" y="15" font-family="Cascadia, Segoe UI Emoji" font-size="16px" fill="#000000" text-anchor="start" style="white-space: pre;" direction="ltr">Event</text></g><g><g transform="translate(656.9807079081633 305.6876594387754) rotate(0 -24.364843061162134 -47.30817168911835)"><path d="M8.31336508742771 36.188949814956715 C5.908520902990507 18.77587417687148, 5.319088128502493 -40.136722180301135, -5.406497383907274 -67.96909601499283 C-16.13208289631704 -95.80146984968452, -47.691069478443865 -120.52194955543635, -56.0401479870309 -130.80529319319348 M6.943494855400686 35.02297963847973 C4.857305525857166 17.798404573433555, 7.6315382397314675 -38.97740304656121, -3.0328861044606423 -66.47902584663548 C-13.697310448652752 -93.98064864670975, -48.34716471883938 -119.65529868739677, -57.04305120975197 -129.98675716196593" stroke="#000000" stroke-width="1" fill="none"></path></g><g transform="translate(656.9807079081633 305.6876594387754) rotate(0 -24.364843061162134 -47.30817168911835)"><path d="M-30.04373530981139 -118.80291671235184 C-40.041925548366095 -123.01856557992419, -51.69622460528181 -126.69545432992048, -56.7334630885017 -129.858556290096 M-30.270097175920462 -117.51655566342245 C-38.73298448365185 -120.99904496383793, -47.864282310571724 -124.97308409859647, -56.333279495578715 -130.59634230466034" stroke="#000000" stroke-width="1" fill="none"></path></g><g transform="translate(656.9807079081633 305.6876594387754) rotate(0 -24.364843061162134 -47.30817168911835)"><path d="M-44.32902905522807 -104.07028677085808 C-49.0061395431937 -113.80542349327017, -55.328169541463595 -122.9815584043551, -56.7334630885017 -129.858556290096 M-44.55539092133714 -102.78392572192868 C-48.59603916691833 -110.95448834557001, -53.16726692703732 -119.63139365856271, -56.333279495578715 -130.59634230466034" stroke="#000000" stroke-width="1" fill="none"></path></g></g><g transform="translate(685.2930484693877 264.342793367347) rotate(0 42 19)"><text x="0" y="15" font-family="Cascadia, Segoe UI Emoji" font-size="16px" fill="#000000" text-anchor="start" style="white-space: pre;" direction="ltr">Ping</text><text x="0" y="34" font-family="Cascadia, Segoe UI Emoji" font-size="16px" fill="#000000" text-anchor="start" style="white-space: pre;" direction="ltr">Container</text></g><g transform="translate(81.75749362244892 578.0170599489793) rotate(0 26.279496173469397 25.66964285714289)"><path d="M35.41042381422834 1.5694849620445943 C40.52411758144551 3.135062595331508, 46.572372622736175 7.617522065752026, 49.340198894658045 12.493330251753653 C52.108025166579914 17.36913843775528, 53.041236789895095 25.273649140195673, 52.01738144575955 30.824334078054353 C50.993526101624 36.37501901591303, 47.394937782764764 42.3372010810062, 43.19706682984477 45.79743987890574 C38.99919587692478 49.257678676805284, 32.30765151780075 51.73180462513753, 26.83015572823958 51.58576686545159 C21.352659938678407 51.43972910576565, 14.618730312903429 48.56726713061327, 10.332092092477755 44.92121332079009 C6.0454538720520805 41.27515951096691, 2.1527253638923014 35.19378103970231, 1.1103264056855338 29.709444006512506 C0.06792744747876611 24.2251069733227, 1.2818325122961252 16.629388827200874, 4.077698343237149 12.01519112165126 C6.873564174178172 7.400993416101644, 12.45347782790316 3.815600178838351, 17.885521391331675 2.0242577732148135 C23.31756495476019 0.23291536759127607, 33.06171484846448 1.1727706306702175, 36.66995972380824 1.2671366879100354 C40.278204599152 1.3615027451498534, 39.6176143490928 2.11154281684696, 39.53499064339421 2.5904541166537207 M17.635874857320033 1.4381756249514055 C22.51718360670827 -0.37734071865683294, 29.673552304205035 0.39137950218741047, 35.095666001067855 2.437111585191751 C40.51777969793067 4.482843668196091, 47.327109600614435 9.24870958192734, 50.16855703849694 13.712568122977448 C53.01000447637945 18.176426664027556, 53.20950216716451 24.171596916367392, 52.1443506283629 29.2202628314924 C51.07919908956129 34.268928746617405, 48.155280022411176 40.40542537015244, 43.77764780568729 44.0045636137275 C39.4000155889634 47.60370185730255, 31.382517662502906 50.35636386883537, 25.87855732801959 50.81509229294272 C20.374596993536272 51.27382071705007, 15.162713181060717 50.15611401279941, 10.753885798787394 46.75693415837159 C6.34505841651407 43.35775430394378, 0.8246766874893516 36.066374965080286, -0.5744069656203514 30.42001316637584 C-1.9734906187300545 24.773651367671388, -0.8082780680186819 17.75148310362882, 2.359383880129176 12.878763366144899 C5.527045828277034 8.006043628660974, 15.783006302787218 3.109648007340007, 18.431564723266796 1.1836947414722907 C21.080123143746373 -0.7422585243954256, 18.10907123872648 0.9339922135195629, 18.25073440300664 1.3230437709386003" stroke="#000000" stroke-width="1" fill="none"></path></g><g transform="translate(66.92171556122446 611.9974489795914) rotate(0 26.279496173469397 25.66964285714289)"><path d="M19.844942598106247 1.6159545994177549 C24.873695382924744 0.09295620926789727, 33.29725816204304 0.08920178424920566, 38.26067651943653 2.319539355656307 C43.224094876830016 4.5498769270634085, 47.38758501464742 9.947942647515582, 49.62545274246716 14.997980027860363 C51.8633204702869 20.048017408205144, 53.20556153839047 27.25630514555547, 51.687882886354984 32.619763637724986 C50.1702042343195 37.9832221298945, 45.13498570126306 44.15663923367427, 40.51938083025425 47.17873098087746 C35.903775959245436 50.20082272808065, 29.46470644599283 51.48437747210294, 23.99425366030209 50.752314120944135 C18.523800874611347 50.02025076978533, 11.634803047774557 46.88309812156139, 7.696664116109783 42.78635087392463 C3.7585251844450096 38.68960362628788, 0.8695784969631367 31.68420481983482, 0.3654200703134478 26.17183063512358 C-0.1387383563362411 20.65945645041234, 0.49783460960168835 14.209000329934337, 4.67171355621165 9.712105765657183 C8.84559250282161 5.21521120138003, 21.228356991247985 0.6711746024848368, 25.408693749973217 -0.8095367505393369 C29.58903050869845 -2.2902481035635107, 29.71324284627445 0.37452579820461845, 29.753734108563037 0.8278376475121405 M23.859873968235487 -0.3414808652207242 C29.24301068551852 -0.6381568348383613, 38.26162126049851 3.1262858481656886, 42.958863287028805 6.372466040722166 C47.6561053135591 9.618646233278644, 51.00455629498531 13.920813087290917, 52.04332612741729 19.13560029011814 C53.08209595984926 24.350387492945366, 51.75499073719509 32.800313248951056, 49.19148228162066 37.66118925768552 C46.62797382604623 42.522065266419986, 41.89910324990459 46.113503720464394, 36.66227539397074 48.300856342524916 C31.425447538036885 50.48820896458544, 23.07173270156725 52.120916533726756, 17.770515146017534 50.78530499004864 C12.469297590467818 49.44969344637052, 7.703780622417515 45.15634365781163, 4.854970060672439 40.28718708045619 C2.0061594989273632 35.41803050310075, -0.028626385289774903 27.098367723891965, 0.6776517755470763 21.570365525916014 C1.3839299363839275 16.042363327940063, 4.961795422711115 10.660832603168842, 9.092639025693547 7.119173892600479 C13.223482628675978 3.577515182032115, 22.63562400141535 1.5167062774966815, 25.462713393441664 0.3204132625058307 C28.289802785467977 -0.8758797524850201, 26.133306560133043 -0.4954118620496247, 26.055175377851413 -0.05858419734462572" stroke="#000000" stroke-width="1" fill="none"></path></g><g transform="translate(101.384406887755 613.372608418367) rotate(0 26.279496173469397 25.66964285714289)"><path d="M35.909505799841014 1.4423608611423866 C41.032971956115475 2.8061409785656073, 45.75945275349988 6.90590472387566, 48.36337400703826 11.67957529421103 C50.96729526057664 16.4532458645464, 52.45422311566821 24.517409995487103, 51.5330333210713 30.084384283154606 C50.61184352647439 35.65135857082211, 46.994811221348776 41.37851070196848, 42.83623523945677 45.081421020216055 C38.67765925756476 48.78433133846363, 32.17686169965873 52.11224724657243, 26.581577429719278 52.301846192640035 C20.986293159779827 52.49144513870764, 13.677144521315094 49.803966463783986, 9.264529619820067 46.21901469662169 C4.851914718325039 42.6340629294594, 1.2241913767392347 36.415231618578154, 0.10588802074911285 30.79213558966626 C-1.012415335241009 25.16903956075436, -0.17670866642078442 17.242339598368915, 2.5547094838793356 12.480438523150303 C5.286127634179456 7.7185374479316895, 10.809685334572155 3.8104635388245924, 16.494396922549832 2.220729138354578 C22.17910851052751 0.6309947378845633, 32.77461535952733 2.505048433749536, 36.66297901174539 2.9420321203302144 C40.55134266396345 3.379015806910893, 39.98564469398331 4.555540529302601, 39.8245788358582 4.842631257838651 M31.35843393630082 1.5687906710475517 C36.999963794307945 2.5122179205614414, 44.864862212830246 5.99682093001868, 48.29742402666888 10.065851793916059 C51.72998584050751 14.134882657813437, 52.28637635015972 20.527801516797837, 51.95380481933262 25.98297585443182 C51.621233288505515 31.438150192065805, 50.12654711806083 38.77865191737708, 46.301994841706275 42.79689781971996 C42.47744256535172 46.815143722062835, 34.578627953292134 49.23275597087887, 29.006491161205314 50.09245126848907 C23.434354369118495 50.95214656609927, 17.407584842070666 50.6198878139961, 12.869174089185352 47.95506960538118 C8.330763336300038 45.290251396766266, 3.792666880379584 39.27628406973916, 1.776026643893431 34.10354201679959 C-0.2406135925927222 28.930799963860007, -1.2757729246207972 21.978947569386598, 0.7693326702684331 16.918617287743707 C2.8144382651576634 11.858287006100817, 8.838160980935658 6.251291514969912, 14.046660213228813 3.7415603269422455 C19.25515944552197 1.2318291389145788, 29.191516537153333 2.2876904277698826, 32.02032806402737 1.860230159577707 C34.8491395909014 1.4327698913855318, 31.100869401187936 1.1494682432375438, 31.01952937447302 1.1767987177891932" stroke="#000000" stroke-width="1" fill="none"></path></g><g transform="translate(77.28922193877548 678.4331951530612) rotate(0 33 9.5)"><text x="0" y="15" font-family="Cascadia, Segoe UI Emoji" font-size="16px" fill="#000000" text-anchor="start" style="white-space: pre;" direction="ltr">Recipes</text></g><g><g transform="translate(168.75924744897958 625.5338010204082) rotate(0 68.50156928766899 0.1086908408689169)"><path d="M-0.28576756529510017 0.9138556402176616 C22.543629158351592 1.1681655024615336, 114.55903067247954 1.194904823167826, 137.28890614063306 1.0586907748892371 M1.765065733585507 0.34802590599283567 C24.472585943870264 0.26115927447278403, 114.50246038425725 -1.039477954660897, 136.7218053740525 -0.922412834929728" stroke="#000000" stroke-width="1" fill="none"></path></g><g transform="translate(168.75924744897958 625.5338010204082) rotate(0 68.50156928766899 0.1086908408689169)"><path d="M110.1157155812834 10.715218604551795 C118.25368163849596 5.389759923184187, 125.82149529230949 1.8784618930907202, 134.82925948212682 -0.005161980035209179 M108.7234928834368 8.73337085173482 C118.58768239078789 7.021238024677012, 126.51980322013583 3.7451803897231972, 137.1791542190203 -0.23631739510079575" stroke="#000000" stroke-width="1" fill="none"></path></g><g transform="translate(168.75924744897958 625.5338010204082) rotate(0 68.50156928766899 0.1086908408689169)"><path d="M109.99352291589348 -9.805626196244402 C118.09144005106097 -8.440099330498004, 125.6990938678542 -5.2607028026481775, 134.82925948212682 -0.005161980035209179 M108.60130021804689 -11.787473949061377 C118.47902285633143 -6.710180107925402, 126.45156512089163 -3.1979252368082633, 137.1791542190203 -0.23631739510079575" stroke="#000000" stroke-width="1" fill="none"></path></g></g><g transform="translate(189.21524234693868 595.5090880102043) rotate(0 37.5 9.5)"><text x="0" y="15" font-family="Cascadia, Segoe UI Emoji" font-size="16px" fill="#000000" text-anchor="start" style="white-space: pre;" direction="ltr">Register</text></g><g><g transform="translate(653.9344547972782 141.4617346406519) rotate(0 147.25959639928172 100.72878623227564)"><path d="M-0.6796057563275099 0.35053631477057934 C40.83572039135798 14.884109222947757, 200.23887120653077 52.57533743894876, 249.55193859173386 86.17834947479784 C298.8650059769369 119.78136151064692, 287.42341763031203 182.65383526570713, 295.1987985548909 201.9686085298651 M1.164462492261082 -0.5110360653139652 C42.546133352323174 13.788147973458416, 200.10362718423963 51.14113742266998, 248.99157953069016 84.54611383389576 C297.87953187714066 117.95109024512155, 287.0944318376342 180.70063691323242, 294.4921765709642 199.91882240204075" stroke="#000000" stroke-width="1" fill="none"></path></g><g transform="translate(653.9344547972782 141.4617346406519) rotate(0 147.25959639928172 100.72878623227564)"><path d="M280.9495473947154 174.68389834050276 C286.4758778814486 182.67487702286638, 290.6281028494185 193.3047658703428, 295.5854363097224 200.6596719994203 M279.9631692064704 173.22237356618234 C286.0226448942613 183.27443521872763, 292.03157674114215 193.36407474011185, 294.4700074196208 199.79171790452608" stroke="#000000" stroke-width="1" fill="none"></path></g><g transform="translate(653.9344547972782 141.4617346406519) rotate(0 147.25959639928172 100.72878623227564)"><path d="M301.2664116232801 171.79512173025603 C299.89427174796464 180.64840327938643, 297.17265529230485 192.2556571426318, 295.5854363097224 200.6596719994203 M300.2800334350351 170.3335969559356 C298.6721875228795 181.41062631947258, 297.01057351621824 192.59091118849776, 294.4700074196208 199.79171790452608" stroke="#000000" stroke-width="1" fill="none"></path></g></g><g><g transform="translate(409.2986288265306 939.0542091836735) rotate(0 -1.4468001700768696 -127.93665710148628)"><path d="M-0.1853880029171706 0.7357111852616072 C-0.691352391488806 -41.519838662980256, -1.6489993301404295 -211.88941074281067, -2.135344349205229 -254.698375126575 M-1.7418554337881507 0.07635561218485232 C-2.422100205350623 -42.447561586754524, -2.3314817983096123 -214.040631737421, -2.7082123372365867 -256.60902538823416" stroke="#000000" stroke-width="1" fill="none"></path></g><g transform="translate(409.2986288265306 939.0542091836735) rotate(0 -1.4468001700768696 -127.93665710148628)"><path d="M8.883424836954923 -227.26558965733855 C4.715920133730425 -239.45331164308695, -1.537672745841344 -251.2419195323529, -2.123068486120287 -255.13018815333476 M7.923333906381281 -227.8148993776238 C4.716326752279379 -237.72614524480446, 0.9667056052838188 -247.413200967689, -3.467293202656988 -256.2014800964155" stroke="#000000" stroke-width="1" fill="none"></path></g><g transform="translate(409.2986288265306 939.0542091836735) rotate(0 -1.4468001700768696 -127.93665710148628)"><path d="M-11.63764163921384 -227.1892151425965 C-8.10824906734928 -239.3738773882901, -6.6656861894734325 -251.19112853359917, -2.123068486120287 -255.13018815333476 M-12.597732569787482 -227.73852486288175 C-8.672209364743246 -237.70456538487102, -5.28853765520769 -247.41816952233543, -3.467293202656988 -256.2014800964155" stroke="#000000" stroke-width="1" fill="none"></path></g></g><g transform="translate(422.74681122448976 804.1187818877552) rotate(0 33 19)"><text x="0" y="15" font-family="Cascadia, Segoe UI Emoji" font-size="16px" fill="#000000" text-anchor="start" style="white-space: pre;" direction="ltr">HTTP</text><text x="0" y="34" font-family="Cascadia, Segoe UI Emoji" font-size="16px" fill="#000000" text-anchor="start" style="white-space: pre;" direction="ltr">Request</text></g><g transform="translate(450.14875637755097 164.7477678571429) rotate(0 14.134247448979636 13.675860969387827)"><path d="M17.14420401581671 -0.4996671054988422 C19.950639766840276 -0.20160183985073665, 23.090010091359936 1.872508021748446, 24.837374934836514 4.517493146265444 C26.584739778313093 7.162478270782442, 27.723341985394125 12.252243237814314, 27.628393076676172 15.370243641603146 C27.53344416795822 18.48824404539198, 26.37881871573181 21.32283521362895, 24.267681482528793 23.22549556899844 C22.156544249325776 25.12815592436793, 17.869656086847744 26.591711773041503, 14.961569677458062 26.786205773820086 C12.05348326806838 26.98069977459867, 9.105437108908088 25.829621291669575, 6.819163026190705 24.392459573669942 C4.532888943473322 22.95529785567031, 2.354757340246305 20.937484913604404, 1.2439251811537648 18.163235465822282 C0.13309302206122475 15.388986018040159, -0.9712948998581605 10.457511234961464, 0.15417007163546437 7.746962886977206 C1.2796350431290893 5.036414538992949, 4.563236255137152 2.9378271316496978, 7.996715010115514 1.8999453779167403 C11.430193765093875 0.8620636241837827, 18.35782113477412 1.442363652305132, 20.755042601505636 1.5196723645794599 C23.15226406823715 1.5969810768537878, 22.723742171033457 2.084708803378923, 22.380043810504603 2.3637976515627077 M11.554565961326789 -0.5007891202530512 C14.68271119035411 -0.9193023960392168, 19.509277566575296 1.2047807834888804, 21.910351881978695 2.66646764459532 C24.311426197382094 4.12815450570176, 25.105024951287334 5.851723341340341, 25.96101185374718 8.269332046385587 C26.816998756207028 10.686940751430834, 27.587740778934347 14.363625747567902, 27.04627329673778 17.1721198748668 C26.504805814541214 19.9806140021657, 25.123694573088756 23.28062017730814, 22.71220696056778 25.120296810178985 C20.300719348046805 26.95997344304983, 15.80780079665227 28.496367734329844, 12.577347621611938 28.210179672091872 C9.346894446571607 27.9239916098539, 5.513030860521152 25.54829380281319, 3.3294879103257955 23.403168436751155 C1.1459449601304392 21.25804307068912, -0.2724120589716665 18.36200796124072, -0.5239100795601992 15.339427475719667 C-0.7754081001487318 12.316846990198613, -0.18856767647210892 7.565030551622114, 1.8204997867945991 5.267685523624829 C3.829567250061307 2.9703404956275437, 9.7241542305135 2.3527785075233583, 11.53049470004005 1.5553573077359548 C13.3368351695666 0.7579361079485514, 12.807354530780245 0.34415216619149136, 12.658542603953897 0.48315832490040833" stroke="#000000" stroke-width="1" fill="none"></path></g><g transform="translate(489.83705357142844 168.35108418367372) rotate(0 14.134247448979636 13.675860969387827)"><path d="M10.165509521412556 1.3634524225474163 C12.684001838711263 0.444747076553599, 16.6222855586057 0.3487723836440628, 19.30256146107409 1.4834688939329617 C21.982837363542483 2.6181654042218607, 24.950359336415897 5.649617788731629, 26.247164936222905 8.171631484280809 C27.543970536029914 10.69364517982999, 27.636288291758472 13.760704039914648, 27.083395059916135 16.61555106722804 C26.5305018280738 19.47039809454143, 25.03406273898835 23.516762412031234, 22.929805545168882 25.300713648161157 C20.825548351349415 27.08466488429108, 17.613944231536255 27.470913441299782, 14.457851896999335 27.319258484007577 C11.301759562462415 27.16760352671537, 6.449040186156962 26.480456429653657, 3.9932515379473568 24.390783904407932 C1.537462889737752 22.301111379162208, -0.10302801774849435 17.70944744927078, -0.2768799922582943 14.781223332533227 C-0.45073196676809424 11.852999215795673, 1.1344342091002755 9.279164259937945, 2.950139690888557 6.821439203982618 C4.765845172676839 4.363714148027292, 9.200823340854113 1.0806633379667845, 10.617352898471395 0.03487299680127087 C12.033882456088678 -1.0109173443642427, 11.454862483948032 0.37058412813653574, 11.449317036592252 0.546697156989536 M14.378586338275815 -0.5418348608528376 C17.14790436678886 -0.6566632674317644, 21.836103283236557 1.0176546300617022, 23.930539940473288 3.288810343924702 C26.02497659771002 5.559966057787701, 26.507846841423614 10.086273729609601, 26.9452062816962 13.08509942232516 C27.38256572196879 16.083925115040717, 28.373862708555556 19.012746356442186, 26.554696582108818 21.281764500218046 C24.73553045566208 23.550782643993905, 19.02404250864928 26.107459544790824, 16.030209523015778 26.69920828498031 C13.036376537382274 27.290957025169792, 11.003690188763958 25.9822156675679, 8.591698668307803 24.832256941354952 C6.179707147851648 23.682298215142005, 2.7121867024915627 22.366782001605415, 1.5582604002788472 19.799455927702617 C0.40433409806613185 17.23212985379982, 0.6692093743186466 12.129867501843975, 1.6681408550315115 9.428300497938167 C2.6670723357443764 6.726733494032359, 5.157161174218244 4.91428929602043, 7.551849284556037 3.5900539042677675 C9.94653739489383 2.2658185125151054, 14.516194232072742 2.1025073526621854, 16.036269517058276 1.4828881474221944 C17.55634480204381 0.8632689421822034, 16.690548051006967 -0.0856655453155867, 16.67230099446924 -0.12766132717217893" stroke="#000000" stroke-width="1" fill="none"></path></g><g transform="translate(525.5513392857142 161.20822704081638) rotate(0 14.134247448979636 13.675860969387827)"><path d="M20.719928630700355 1.1545254485583119 C23.52332640944548 2.027844515255458, 26.07194908820881 4.959036270175648, 27.410706251558565 7.476346008719093 C28.74946341490832 9.993655747262538, 29.58184360854527 13.354231377598007, 28.752471610798878 16.258383879818986 C27.923099613052486 19.162536382039967, 24.918308665022703 22.929521006226132, 22.434474265080205 24.90126102204497 C19.950639865137706 26.87300103786381, 16.893462763582125 28.457172018108487, 13.849465211143881 28.088823974732016 C10.805467658705638 27.720475931355544, 6.380309162778348 24.95188657347382, 4.1704889504507445 22.69117276178615 C1.960668738123141 20.430458950098476, 1.0055597871366615 17.187265381256285, 0.5905439371782588 14.52454110460597 C0.17552808721985613 11.861816827955654, -0.015270168069429602 9.124760452499508, 1.6803938507003284 6.714827101884256 C3.3760578694700865 4.304893751269003, 7.612641498091346 1.0664553962789973, 10.764528049796807 0.06494100091445176 C13.916414601502268 -0.9365733944500938, 18.764473517009574 0.45023412418764625, 20.59171316093309 0.7057407296969824 C22.418952804856605 0.9612473352063187, 21.886827112560574 1.1986366121952532, 21.727965913337908 1.5979806339704687 M14.173265675844686 -0.49324696448802996 C16.784045066956253 -0.5125017704177411, 20.342153483590515 0.07366131082669236, 22.700851892564227 2.3314615804816405 C25.05955030153794 4.589261850136589, 27.869966742876187 10.151378150922127, 28.325456129686962 13.05355465344166 C28.780945516497738 15.955731155961193, 27.148930053005955 17.325277840653982, 25.43378821342889 19.744520595598836 C23.718646373851826 22.16376335054369, 21.003607277619317 26.409032150028814, 18.034605092224563 27.56901118311078 C15.065602906829811 28.72899021619275, 10.240960763669529 27.798820449836718, 7.61977510106038 26.704394794090646 C4.998589438451232 25.609969138344574, 3.56811670327477 23.484336042284085, 2.3074911165696754 21.002457248634343 C1.0468655298645813 18.5205784549846, -0.715619645737898 14.810845304774881, 0.056021580829815676 11.813122032192194 C0.8276628073975294 8.815398759609506, 4.247010625427642 4.8331237052396245, 6.937338475975958 3.0161176131382152 C9.627666326524274 1.1991115210368062, 14.97049427538517 1.3182932380513748, 16.197988684119714 0.9110854795837398 C17.42548309285426 0.5038777211161047, 14.581912611191584 0.3383622887740554, 14.30230492838323 0.5728710623324051" stroke="#000000" stroke-width="1" fill="none"></path></g><g transform="translate(571.469706632653 146.92251275510216) rotate(0 14.134247448979636 13.675860969387827)"><path d="M12.747733325800777 0.557237596784887 C15.46583695224365 0.17254323891709483, 19.484507296323656 1.7767815024600724, 21.841200836048273 3.385378002768036 C24.19789437577289 4.993974503075999, 26.022053785402548 7.3944995235504525, 26.887894564148482 10.208816598632668 C27.753735342894416 13.023133673714883, 28.02676403211087 17.636007511263323, 27.036245508523884 20.271280453261323 C26.0457269849369 22.906553395259323, 23.813263128915143 24.82727873150807, 20.94478342262658 26.02045425062066 C18.076303716338014 27.21362976973325, 12.954246477953584 28.31092797227678, 9.82536727079249 27.43033356793686 C6.6964880636313975 26.54973916359694, 3.6642073472194463 23.157527266090224, 2.1715081796600213 20.73688782458113 C0.6788090121005963 18.31624838307204, 0.6183577543202698 15.737715748786794, 0.8691722654359406 12.90649691888231 C1.1199867765516114 10.075278088977825, 1.4447568922392846 5.865890347616588, 3.676395246354046 3.7495748451542212 C5.908033600468807 1.6332593426918542, 12.083955561139643 0.8172017839432435, 14.259002390124508 0.20860390410810759 C16.434049219109372 -0.39999397572702833, 16.54558011816862 -0.11717366111374528, 16.72667622026324 0.09798756614340576 M16.444038330258287 -0.7524539510786923 C19.32099723660526 -0.23366963243874872, 21.740972231887252 2.966679078362753, 23.894956603538887 5.333145895140703 C26.048940975190522 7.699612711918653, 29.452003133659726 10.594103654810427, 29.367944560168098 13.446346949589008 C29.28388598667647 16.29859024436759, 25.4427240812916 20.328945275659375, 23.39060516258911 22.446605663812193 C21.33848624388662 24.56426605196501, 19.75954046540546 25.547660878495922, 17.055231047953146 26.152309278505918 C14.350921630500832 26.756957678515914, 9.708246028255218 27.47951970793821, 7.164748657875223 26.074496063872168 C4.6212512874952285 24.669472419806127, 2.631943838141047 20.39759090903816, 1.794246825673179 17.722167414109677 C0.9565498132053109 15.046743919181191, 1.1681855071131069 12.468438736339253, 2.1385665830680143 10.021955094301255 C3.1089476590229217 7.5754714522632565, 4.99823258285895 4.750432438045696, 7.6165332814026225 3.043265561881684 C10.234833979946295 1.3360986857176729, 16.25436325776788 0.23296418527855867, 17.84837077433005 -0.2210461626828124 C19.44237829089222 -0.6750565106441835, 17.220717920803185 -0.06079227430970846, 17.18057838077563 0.31920347411345773" stroke="#000000" stroke-width="1" fill="none"></path></g><g><g transform="translate(365.35522959183675 560.4907525510205) rotate(0 43.78780852019369 -180.8800429040091)"><path d="M1.0873471040278673 -0.6679414708167314 C4.176488383608497 -34.18055817549479, 5.649910148225498 -141.99680132991355, 19.63004281780086 -202.11108198218358 C33.610175487376225 -262.22536263445363, 74.02286981725115 -334.59424343404874, 84.96814312148004 -361.3536253844369 M0.1990656043030321 1.5957853116653862 C3.5916164632799092 -32.19302435673204, 7.49597904012702 -143.17532035150285, 22.025560012090573 -204.00059642339434 C36.55514098405413 -264.8258724952858, 76.8411786797175 -337.037143320139, 87.37655143608434 -363.35587111968357" stroke="#000000" stroke-width="1" fill="none"></path></g><g transform="translate(365.35522959183675 560.4907525510205) rotate(0 43.78780852019369 -180.8800429040091)"><path d="M83.71012645843663 -334.4692778105246 C86.82011934168501 -346.72576951897935, 88.15943621048405 -357.865271299301, 86.26718500611467 -361.58281218554635 M84.41989228478857 -333.36307397599836 C85.70348160355087 -340.5486875409611, 86.51361490070458 -349.86138832105524, 86.87406227813197 -363.0100146384518" stroke="#000000" stroke-width="1" fill="none"></path></g><g transform="translate(365.35522959183675 560.4907525510205) rotate(0 43.78780852019369 -180.8800429040091)"><path d="M65.09379434911784 -343.10363830690096 C75.41323107557974 -352.1504828518838, 84.03649061522897 -359.9116506786778, 86.26718500611467 -361.58281218554635 M65.80356017546978 -341.9974344723747 C72.07675029358168 -346.8978061446427, 77.84609736562452 -353.910395428039, 86.87406227813197 -363.0100146384518" stroke="#000000" stroke-width="1" fill="none"></path></g></g><g transform="translate(10 316.4239477040817) rotate(0 539.7580516581634 202.06273915816337)"><path d="M0.35503291562199596 0.19386998936533928 C315.6421915591109 4.223484361602535, 631.9624503307737 3.1528607968823805, 1079.9205912309187 0.23612527176737785 M-0.2108544621616602 0.24425699450075627 C270.4123465260282 1.100940724278308, 540.373849745053 1.420275600815631, 1079.537848434453 0.05859707333147526 M1079.0628198346944 0.8173791289776308 C1081.8115419067087 94.15721005730649, 1080.8518781011662 189.0152650982852, 1079.3817875526033 404.57021699240016 M1078.96435663925 0.07314360733485692 C1078.3599120625986 154.51195995100554, 1078.3807990295925 308.6272254730452, 1079.1261092798425 403.82008021301084 M1080.0587154346008 404.5550395192998 C658.8779597728197 399.57472452152007, 238.81765775483774 400.6739450119757, 0.5477937407791614 403.47713946722916 M1079.4781489348459 404.0295298560011 C750.5542320764882 401.15100084804254, 422.16517506615287 401.1817882087107, -0.34675571061670785 404.2805711372244 M0.7478876469731157 404.57043408520667 C-1.7648378079737903 273.2706685411601, -2.415792239676736 144.83948053153415, 0.11042833401384972 -0.4552935355701374 M0.32261984011152733 404.2868057422945 C-0.1862737810989653 280.1859316979962, -0.1673544282674022 157.48762651619808, 0.17782929738835315 -0.1386282234326974" stroke="#000000" stroke-width="1" fill="none"></path></g><g transform="translate(29.05293367346934 333.1187818877552) rotate(0 37.5 9.5)"><text x="0" y="15" font-family="Cascadia, Segoe UI Emoji" font-size="16px" fill="#000000" text-anchor="start" style="white-space: pre;" direction="ltr">Baker.go</text></g><g transform="translate(398.99075255102036 364.4166135204082) rotate(0 47 28.5)"><text x="0" y="15" font-family="Cascadia, Segoe UI Emoji" font-size="16px" fill="#000000" text-anchor="start" style="white-space: pre;" direction="ltr">Proxy</text><text x="0" y="34" font-family="Cascadia, Segoe UI Emoji" font-size="16px" fill="#000000" text-anchor="start" style="white-space: pre;" direction="ltr">Request to</text><text x="0" y="53" font-family="Cascadia, Segoe UI Emoji" font-size="16px" fill="#000000" text-anchor="start" style="white-space: pre;" direction="ltr">container</text></g><g><g transform="translate(472.4840561224489 203.15864158163276) rotate(0 -15.934360154710845 179.853861644963)"><path d="M-0.04163297004997735 -0.8650972824543715 C7.429319316070211 34.02098940034858, 57.2119508181731 150.27032817147767, 44.31621512462755 210.50998114728344 C31.420479431081993 270.7496341230892, -57.12084990435456 335.48913084292644, -77.41604713132331 360.57282057238024 M-1.5226290086656808 1.295122698917985 C5.912677496891154 36.88373580803625, 56.627546976975616 152.48250972740448, 43.83493594964405 212.00292551868571 C31.04232492231248 271.52334130996695, -58.084963761802655 333.939117965641, -78.27829517265508 358.4176174466054" stroke="#000000" stroke-width="1" fill="none"></path></g><g transform="translate(472.4840561224489 203.15864158163276) rotate(0 -15.934360154710845 179.853861644963)"><path d="M-66.32754449926553 333.0546984839336 C-68.20908928336605 338.1753834088869, -70.92239389936458 345.0241511299333, -76.95149520067224 360.37906503011686 M-65.28630004178969 330.9659053002567 C-69.9529215385977 340.97147076459675, -74.56203118591507 351.1733382333594, -77.72437201933661 358.8421512822176" stroke="#000000" stroke-width="1" fill="none"></path></g><g transform="translate(472.4840561224489 203.15864158163276) rotate(0 -15.934360154710845 179.853861644963)"><path d="M-52.20536160586055 347.9437532796907 C-57.87203779100096 349.2249849004417, -64.22239458323114 352.2391988874312, -76.95149520067224 360.37906503011686 M-51.16411714838471 345.8549600960138 C-60.75558996084087 350.6001995657885, -70.33309798287387 355.5638714803187, -77.72437201933661 358.8421512822176" stroke="#000000" stroke-width="1" fill="none"></path></g></g><g><g transform="translate(407.9652423469388 777.8636798469386) rotate(0 1.091411033259078 101.61666757046117)"><path d="M0.48253386430442324 0.39216383881866923 C0.6455862990472837 34.221135018712715, 0.6051943930258971 168.5630142894707, 0.7502937180275466 202.57742515137156 M-0.7232745862752199 -0.44755409114062794 C-0.18098354603309186 33.54814314389868, 2.7275894107690077 169.8229157671652, 2.9060966527933623 203.6808892320629" stroke="#000000" stroke-width="1" fill="none"></path></g><g transform="translate(407.9652423469388 777.8636798469386) rotate(0 1.091411033259078 101.61666757046117)"><path d="M-7.107215250356372 173.8757698587808 C-6.233715144599453 182.7166709658684, -0.06765657358915611 189.61485592929125, 4.53111541149266 204.96139040587207 M-6.931717380395408 175.33345074446083 C-4.679852004267313 182.0020856684507, -1.3692544644944515 189.4700419770326, 3.6990191430697585 202.84241736398747" stroke="#000000" stroke-width="1" fill="none"></path></g><g transform="translate(407.9652423469388 777.8636798469386) rotate(0 1.091411033259078 101.61666757046117)"><path d="M13.411850495818229 173.57921751938113 C8.518549231915907 182.58595885163467, 8.91878604925937 189.56747450617007, 4.53111541149266 204.96139040587207 M13.587348365779192 175.03689840506115 C10.63582998943271 181.89617980139633, 8.742627336509301 189.43934416964342, 3.6990191430697585 202.84241736398747" stroke="#000000" stroke-width="1" fill="none"></path></g></g><g><g transform="translate(381.34183673469386 937.0426498724491) rotate(0 -1.5895136523170876 -128.15611713256914)"><path d="M-1.1986883718520402 -0.28639766983687875 C-1.9570243815555726 -42.77247117587751, -3.458058184869367 -211.7693873633358, -3.5518888082203603 -254.31595624596335 M0.3728615035861731 -1.4823603918403387 C-0.08224999020244234 -44.357826168922834, -0.8202965517712411 -213.8575960837218, -1.2084426372346613 -256.02583659530137" stroke="#000000" stroke-width="1" fill="none"></path></g><g transform="translate(381.34183673469386 937.0426498724491) rotate(0 -1.5895136523170876 -128.15611713256914)"><path d="M8.758339694131335 -229.0723950664474 C6.403133683236787 -236.96924045953233, 0.3180962352801071 -248.64073952799464, -2.338793243750665 -255.17996372931157 M9.376384199958464 -227.4460542851089 C6.756331760516844 -235.30158979286574, 3.214309656891209 -241.90167000414323, -1.1855677221936318 -255.83081264976863" stroke="#000000" stroke-width="1" fill="none"></path></g><g transform="translate(381.34183673469386 937.0426498724491) rotate(0 -1.5895136523170876 -128.15611713256914)"><path d="M-11.762433090826049 -228.9386539209774 C-6.255214636619003 -236.6817624501921, -4.477158373443344 -248.40450808577373, -2.338793243750665 -255.17996372931157 M-11.14438858499892 -227.3123131396389 C-8.50275551037293 -235.07430705274015, -6.782108266002178 -241.70868594439418, -1.1855677221936318 -255.83081264976863" stroke="#000000" stroke-width="1" fill="none"></path></g></g><g><g transform="translate(380.00845025510205 775.8521205357142) rotate(0 1.1546585012835635 101.89519658072726)"><path d="M-0.28639766983687875 -0.7019206959754228 C0.04614064385037858 33.57991300890488, 2.323671735303662 170.38280337947822, 2.5957146724040054 204.49231385742982 M1.7641048241592943 1.5439669932983815 C1.9548618297916276 35.62027957894175, 2.2982673577426 169.5480941294267, 2.060363608217463 202.94109450880174" stroke="#000000" stroke-width="1" fill="none"></path></g><g transform="translate(380.00845025510205 775.8521205357142) rotate(0 1.1546585012835635 101.89519658072726)"><path d="M-9.328194707895952 176.0452367236761 C-3.0492974051605746 183.85977299082847, -0.36762904984692746 193.37561169011423, 2.906236474207267 202.07020870264355 M-7.701853926557439 175.1410927150322 C-4.638339102127491 184.79984820020837, -0.2087160083908275 195.81700090392232, 2.255387553750202 202.94196931965385" stroke="#000000" stroke-width="1" fill="none"></path></g><g transform="translate(380.00845025510205 775.8521205357142) rotate(0 1.1546585012835635 101.89519658072726)"><path d="M11.192991222328954 176.07573923141507 C10.28894910187323 183.830621556643, 5.7873733423179505 193.33578314594348, 2.906236474207267 202.07020870264355 M12.819332003667467 175.17159522277115 C8.217090370806275 184.84783251176304, 4.980766982781507 195.85359062099883, 2.255387553750202 202.94196931965385" stroke="#000000" stroke-width="1" fill="none"></path></g></g><g><g transform="translate(351.4969706632653 936.9905133928573) rotate(0 -0.6513279066904119 -127.68324050169667)"><path d="M1.0041885416954754 0.38509618230164055 C0.672601570688232 -42.098130415169656, -1.2014451568198978 -213.20191038741797, -1.8721522297558522 -255.75157718569494 M0.07224879674613471 -0.4583322673290968 C-0.34207041303063995 -42.719456508843365, -1.6489616839958012 -212.38219369544717, -2.306844355076287 -254.5551585283921" stroke="#000000" stroke-width="1" fill="none"></path></g><g transform="translate(351.4969706632653 936.9905133928573) rotate(0 -0.6513279066904119 -127.68324050169667)"><path d="M8.907296149001668 -224.85009920366738 C4.10719483200349 -235.3720064021193, 2.2298827215504593 -243.46250112532107, -3.267980176493261 -253.54239414714732 M7.958519228675614 -227.26082026262466 C4.690675338703127 -234.71068850321322, 3.6881500954037465 -241.38668650612868, -1.4578507621807195 -254.7854358664573" stroke="#000000" stroke-width="1" fill="none"></path></g><g transform="translate(351.4969706632653 936.9905133928573) rotate(0 -0.6513279066904119 -127.68324050169667)"><path d="M-11.612652873838849 -224.62273498953894 C-10.054453274721382 -235.38679107010555, -5.575079167267834 -243.54771886138104, -3.267980176493261 -253.54239414714732 M-12.561429794164903 -227.03345604849622 C-10.544771094160463 -234.45239666893454, -6.263976772225218 -241.18693467112593, -1.4578507621807195 -254.7854358664573" stroke="#000000" stroke-width="1" fill="none"></path></g></g><g><g transform="translate(350.1635841836735 775.7999840561224) rotate(0 1.3295873118986563 102.56381378185807)"><path d="M0.38509618230164055 0.9778158824890852 C0.720481404558234 34.68277313778443, 0.8911487112214787 169.46390790838217, 1.160093732672408 203.23393207346757 M-0.8718670513294637 0.4455652754567563 C-0.06676851012889307 34.86214127548306, 3.16366974601727 170.58677853600523, 3.531041675126776 204.68206228825932" stroke="#000000" stroke-width="1" fill="none"></path></g><g transform="translate(350.1635841836735 775.7999840561224) rotate(0 1.3295873118986563 102.56381378185807)"><path d="M-5.612599479025048 175.60065762077926 C-4.824569740608588 183.37509974226612, -1.750956879175078 188.5099644793871, 4.5438060563715545 203.83150935496872 M-8.023320537982327 175.68442069397776 C-5.64909778226084 184.37985598376378, -2.425024570855318 191.45090725987714, 3.300764337061569 204.964676542652" stroke="#000000" stroke-width="1" fill="none"></path></g><g transform="translate(350.1635841836735 775.7999840561224) rotate(0 1.3295873118986563 102.56381378185807)"><path d="M14.905191986724633 175.22617697528526 C10.998153280029763 183.15221273367015, 9.37356395324118 188.37282674799982, 4.5438060563715545 203.83150935496872 M12.494470927767354 175.30994004848375 C9.779308166893397 184.03525515061364, 7.915628609028346 191.19916558967984, 3.300764337061569 204.964676542652" stroke="#000000" stroke-width="1" fill="none"></path></g></g><g transform="translate(243.8329081632653 991.9102359693875) rotate(0 140.62699298469386 102.67857142857144)"><path d="M135.12727165494798 0.02319764658706447 C150.61457906794146 -1.7056537695412786, 169.59400216079928 2.068582620349138, 185.1572897126737 5.862827748227687 C200.72057726454813 9.657072876106236, 215.79801275476623 15.380773013978057, 228.50699696619455 22.78866841385836 C241.21598117762287 30.196563813738663, 253.0431912781572 40.19769787918012, 261.4111949812436 50.31020014750951 C269.77919868433 60.422702415838906, 275.85014834744334 71.76238022708394, 278.71501918471307 83.46368202383472 C281.5798900219828 95.1649838205855, 281.3731115914205 108.79813171271516, 278.60042000486203 120.51801092801419 C275.82772841830354 132.23789014331322, 269.97625033434906 143.62694753359585, 262.0788696653621 153.78295731562886 C254.18148899637515 163.93896709766187, 243.8812189120088 173.6805679460791, 231.21613599094022 181.45406962021227 C218.55105306987164 189.22757129434544, 201.54068274113658 196.33398998622263, 186.08837213895072 200.42396736042787 C170.63606153676486 204.5139447346331, 154.7600907758894 206.3259032917336, 138.50227237782502 205.9939338654436 C122.24445397976062 205.66196443915362, 103.95468152941132 203.04046672209194, 88.54146175056431 198.43215080268794 C73.1282419717173 193.82383488328395, 57.95341015358825 186.2754647016417, 46.02295370474299 178.34403834901968 C34.092497255897726 170.41261199639766, 24.44308136627353 161.14436151135112, 16.95872305749272 150.8435926869558 C9.47436474871191 140.54282386256045, 3.482605648620362 128.4513052696032, 1.1168038520581263 116.53942540264765 C-1.2489979445041093 104.6275455356921, -0.8247806049760675 90.90228718371037, 2.7639122781193066 79.37231348522248 C6.352605161214681 67.84233978673458, 13.566813767060895 57.20275750354973, 22.64896115063037 47.35958321172029 C31.731108534199848 37.51640891989085, 44.14365769228908 27.439490228802246, 57.25679657953616 20.313267734245812 C70.36993546678323 13.187045239689379, 87.37035060344421 7.861387100504695, 101.32779447411282 4.602248244381698 C115.28523834478143 1.3431093882587013, 133.67628712959888 1.0741740564408957, 141.00145980354782 0.7584345975078293 C148.32663247749676 0.44269513857476284, 145.31605620313886 1.2654023392652693, 145.2788305178065 2.7078114907832997 M105.61019219150043 3.2756196915339757 C120.1624635606839 -0.9441431757664303, 140.18331033405752 -1.03074259752911, 156.32515958670803 0.10078062393854736 C172.46700883935853 1.2323038454062047, 188.17747108416296 4.614098807175334, 202.46128770740353 10.06475902033992 C216.7451043306441 15.515419233504506, 230.6126409999496 24.07517154713335, 242.02805932615138 32.80474190292607 C253.44347765235315 41.534312258718785, 264.1874811830652 51.45158453860585, 270.9537976646141 62.44218115509623 C277.72011414616304 73.4327777715866, 281.9962149500718 86.99774658617135, 282.62595821544494 98.74832160186833 C283.25570148081806 110.49889661756531, 279.94485664009164 121.88933167747753, 274.7322572568528 132.9456312492781 C269.51965787361394 144.0019308210787, 261.42820186677943 155.58740113930136, 251.35036191601165 165.08611903267183 C241.27252196524384 174.5848369260423, 228.23576985339676 183.73385118552903, 214.26521755224593 189.9379386095009 C200.2946652510951 196.14202603347275, 183.68868443505144 200.00744854236925, 167.5270481091067 202.31064357650303 C151.36541178316193 204.6138386106368, 133.54302855775936 205.37463096052807, 117.29539959657733 203.75710881430354 C101.0477706353953 202.139586668079, 84.22432464532314 198.6823707945042, 70.04127434201452 192.60551069915576 C55.8582240387059 186.5286506038073, 42.47884948539448 176.56009239129213, 32.19709777672563 167.29594824221275 C21.915346068056778 158.03180409313336, 13.53786187708386 148.12144239309364, 8.350764090001434 137.02064580467953 C3.1636663029190073 125.9198492162654, 0.8892112388138997 112.48166764599662, 1.074511054231067 100.69116871172801 C1.2598108696482342 88.9006697774594, 3.737406447061285 77.12934660065048, 9.462562982504437 66.27765219906786 C15.187719517947588 55.425957797485246, 24.709725779283055 44.70938020624456, 35.42545026688998 35.581002302232335 C46.14117475449691 26.45262439822011, 61.77897490516889 16.937326980764606, 73.75690990814599 11.507384774994492 C85.73484491112309 6.0774425692243765, 101.72742214730953 4.288254489605367, 107.29306028475258 3.001349067611642 C112.85869842219564 1.7144436456179168, 106.61256284536327 2.3408251830998026, 107.15073873280436 3.785952243032142" stroke="#000000" stroke-width="1" fill="none"></path></g><g transform="translate(346.95990114795916 1085.088807397959) rotate(0 37.5 9.5)"><text x="37.5" y="15" font-family="Cascadia, Segoe UI Emoji" font-size="16px" fill="#000000" text-anchor="middle" style="white-space: pre;" direction="ltr">Internet</text></g></svg>